External Loads File
version=1
nRows=39
nColumns=13
Range=5.000000e-03-10 seconds
endheader
time 	forceRightX 	forceRightY 	forceRightZ 	pointRightX 	pointRightY 	pointRightZ 	forceLeftX 	forceLeftY 	forceLeftZ 	pointLeftX 	pointLeftY 	pointLeftZ 		
7.505000 -20.707896 123.689408 -0.000000 0.325310 0.498335 -0.126583 100.392914 285.633494 -0.000000 0.289133 0.146437 -0.366421
7.510000 -18.274934 129.933087 -0.000000 0.333514 0.498219 -0.126135 98.533753 247.574144 -0.000000 0.279828 0.147765 -0.366165
7.515000 -16.450251 136.704448 -0.000000 0.341475 0.497722 -0.126004 95.213247 212.300533 -0.000000 0.270682 0.149711 -0.365837
7.520000 -15.203487 144.435258 -0.000000 0.349261 0.496098 -0.125868 91.054149 180.333169 -0.000000 0.261631 0.152183 -0.365605
7.525000 -14.514636 153.484352 -0.000000 0.356857 0.493679 -0.125768 86.494988 152.056346 -0.000000 0.252662 0.155392 -0.365364
7.530000 -14.440488 164.071220 -0.000000 0.364267 0.490501 -0.125657 81.834326 127.699183 -0.000000 0.244021 0.159131 -0.365002
7.535000 -14.838559 176.279510 -0.000000 0.371504 0.486597 -0.125541 77.481502 107.181867 -0.000000 0.235627 0.163494 -0.364921
7.540000 -15.602766 190.027697 -0.000000 0.378546 0.481945 -0.125427 73.674590 90.300182 -0.000000 0.227459 0.168365 -0.364355
7.545000 -16.601635 205.065267 -0.000000 0.385366 0.476526 -0.125280 70.559112 76.743855 -0.000000 0.219573 0.173784 -0.363986
7.550000 -17.717666 220.971237 -0.000000 0.391974 0.470408 -0.124928 68.199450 66.146868 -0.000000 0.212030 0.179754 -0.363817
7.555000 -18.818133 237.185478 -0.000000 0.398417 0.463530 -0.125055 66.630084 58.083674 -0.000000 0.204878 0.186262 -0.363797
7.560000 -19.957558 253.057874 -0.000000 0.404736 0.456176 -0.125053 65.823861 52.139771 -0.000000 0.198052 0.193192 -0.364332
7.565000 -21.400316 267.941442 -0.000000 0.410833 0.448362 -0.124727 65.720471 47.944264 -0.000000 0.191791 0.200533 -0.364371
7.570000 -23.023223 281.327329 -0.000000 0.416667 0.440032 -0.124788 66.347604 45.057291 -0.000000 0.185931 0.208448 -0.364402
7.575000 -25.429904 292.818303 -0.000000 0.421975 0.431245 -0.124753 67.614291 43.259058 -0.000000 0.180584 0.216499 -0.364447
7.580000 -28.092917 302.333549 -0.000000 0.426802 0.421677 -0.124510 69.581219 42.124213 -0.000000 0.175694 0.225135 -0.364415
7.585000 -31.341411 309.966664 -0.000000 0.431505 0.412145 -0.124523 72.134620 41.493966 -0.000000 0.170786 0.234060 -0.363400
7.590000 -35.755889 315.988417 -0.000000 0.435755 0.402372 -0.124716 75.104749 41.324455 -0.000000 0.166907 0.243269 -0.363439
7.595000 -41.008363 320.901306 -0.000000 0.439344 0.392347 -0.124519 78.417119 41.411545 -0.000000 0.163604 0.252802 -0.363456
7.600000 -46.545351 325.329463 -0.000000 0.442685 0.381858 -0.124575 82.004847 41.511496 -0.000000 0.160823 0.262612 -0.363429
7.605000 -52.927895 329.769940 -0.000000 0.445417 0.371361 -0.124567 85.651265 41.617055 -0.000000 0.158590 0.272567 -0.363470
7.610000 -59.503500 334.895914 -0.000000 0.447777 0.360594 -0.124542 89.285549 41.355068 -0.000000 0.156927 0.282819 -0.363475
7.615000 -66.625395 341.228516 -0.000000 0.449502 0.349767 -0.124534 92.706393 40.599000 -0.000000 0.155886 0.293204 -0.363550
7.620000 -73.832337 349.408510 -0.000000 0.450660 0.338682 -0.124511 95.819255 39.039562 -0.000000 0.155347 0.303763 -0.363532
7.625000 -81.403659 359.857671 -0.000000 0.451255 0.327669 -0.124518 98.433315 36.623909 -0.000000 0.155454 0.314454 -0.363548
7.630000 -89.102396 372.964814 -0.000000 0.451313 0.316627 -0.124432 100.396763 33.245815 -0.000000 0.156179 0.325181 -0.363597
7.635000 -96.748571 388.922616 -0.000000 0.450286 0.305600 -0.124771 101.546903 28.928730 -0.000000 0.157465 0.335834 -0.363629
7.640000 -104.079043 407.738272 -0.000000 0.449700 0.294731 -0.123633 101.759511 23.794957 -0.000000 0.159543 0.346568 -0.363511
7.645000 -108.600159 429.794042 -0.000000 0.447137 0.282762 -0.124921 101.053964 17.534215 -0.000000 0.162192 0.357148 -0.363504
7.650000 -112.820263 453.995446 -0.000000 0.444465 0.271999 -0.125412 99.224128 11.109456 -0.000000 0.165627 0.367826 -0.363728
7.655000 -116.347553 479.801411 -0.000000 0.441390 0.261695 -0.125457 96.307292 4.701338 -0.000000 0.169332 0.377895 -0.363657
7.660000 -116.624000 506.999839 -0.000000 0.437444 0.251547 -0.126259 92.353168 -1.959373 -0.000000 0.173803 0.387927 -0.363621
7.665000 -114.417549 534.356908 -0.000000 0.433506 0.241883 -0.125699 87.377985 -8.506848 -0.000000 0.178846 0.397768 -0.363630
7.670000 -107.800954 561.050388 -0.000000 0.428925 0.231937 -0.125322 81.407717 -15.113855 -0.000000 0.184399 0.407246 -0.363613
7.675000 -97.833442 585.506504 -0.000000 0.423750 0.222887 -0.125386 74.533861 -21.508655 -0.000000 0.190570 0.416503 -0.363519
7.680000 -84.192681 606.459687 -0.000000 0.418125 0.214122 -0.125425 66.853401 -27.703734 -0.000000 0.197175 0.425275 -0.363470
7.685000 -67.491323 622.584880 -0.000000 0.412078 0.205703 -0.125418 58.528322 -33.623002 -0.000000 0.203818 0.433726 -0.362961
7.690000 -45.068974 632.988366 -0.000000 0.405526 0.197754 -0.125471 49.546006 -39.486901 -0.000000 0.212406 0.441960 -0.364227
7.695000 -22.849801 636.198006 -0.000000 0.398530 0.190324 -0.125473 40.362551 -44.816139 -0.000000 0.219839 0.449597 -0.363066
